<svg xmlns="http://www.w3.org/2000/svg" viewBox="0 0 64 64">
  <defs>
    <radialGradient id="body" cx="38%" cy="62%" r="65%">
      <stop offset="0%" stop-color="#BAE6FD"/>
      <stop offset="45%" stop-color="#38BDF8"/>
      <stop offset="85%" stop-color="#0369A1"/>
      <stop offset="100%" stop-color="#082F49"/>
    </radialGradient>
    <radialGradient id="rim" cx="50%" cy="55%" r="50%">
      <stop offset="80%" stop-color="#000" stop-opacity="0"/>
      <stop offset="100%" stop-color="#000" stop-opacity=".45"/>
    </radialGradient>
    <linearGradient id="sheen" x1="0" y1="0" x2="0" y2="1">
      <stop offset="0" stop-color="#fff" stop-opacity=".9"/>
      <stop offset="1" stop-color="#fff" stop-opacity="0"/>
    </linearGradient>
    <radialGradient id="shadow" cx="50%" cy="50%" r="50%">
      <stop offset="0" stop-color="#000" stop-opacity=".35"/>
      <stop offset="1" stop-color="#000" stop-opacity="0"/>
    </radialGradient>
    <clipPath id="clip">
      <path d="M32 3S10 25 10 41a22 22 0 0 0 44 0C54 25 32 3 32 3z"/>
    </clipPath>
  </defs>
  <ellipse cx="32" cy="60" rx="16" ry="3" fill="url(#shadow)"/>
  <g clip-path="url(#clip)">
    <path d="M32 3S10 25 10 41a22 22 0 0 0 44 0C54 25 32 3 32 3z" fill="url(#body)"/>
    <path d="M32 3S10 25 10 41a22 22 0 0 0 44 0C54 25 32 3 32 3z" fill="url(#rim)"/>
    <ellipse cx="24" cy="22" rx="9" ry="14" fill="url(#sheen)" opacity=".75" transform="rotate(-20 24 22)"/>
    <ellipse cx="42" cy="48" rx="3" ry="5" fill="#fff" opacity=".55"/>
    <path d="M20 44c2 8 8 12 14 12" stroke="#fff" stroke-opacity=".35" stroke-width="2" fill="none" stroke-linecap="round"/>
  </g>
  <path d="M32 3S10 25 10 41a22 22 0 0 0 44 0C54 25 32 3 32 3z" fill="none" stroke="#0C4A6E" stroke-opacity=".5" stroke-width="1"/>
</svg>
